<svg width="26" height="29" viewBox="0 0 26 29" fill="none" xmlns="http://www.w3.org/2000/svg">
<path d="M12.757 0C16.5536 0 19.6749 2.98337 19.8333 6.76363H19.7963C19.8008 6.87351 19.7796 6.98293 19.7346 7.08333H19.9558C21.6799 7.08333 23.4853 8.27831 24.2092 11.1631L24.2878 11.5034L25.3771 20.2792C26.161 25.8765 23.0987 28.2303 18.9213 28.33L18.6412 28.3333H6.89708C2.65168 28.3333 -0.619729 26.7863 0.0995645 20.66L0.148615 20.2792L1.25041 11.5034C1.7937 8.39685 3.61761 7.17152 5.375 7.08796L5.56993 7.08333H5.68067C5.662 6.97758 5.662 6.86938 5.68067 6.76363C5.83911 2.98337 8.96041 0 12.757 0ZM8.63741 11.7998C7.94593 11.7998 7.38538 12.3768 7.38538 13.0885C7.38538 13.8002 7.94593 14.3771 8.63741 14.3771C9.32889 14.3771 9.88945 13.8002 9.88945 13.0885L9.87969 12.9268C9.80243 12.2914 9.2757 11.7998 8.63741 11.7998ZM16.8382 11.7998C16.1468 11.7998 15.5862 12.3768 15.5862 13.0885C15.5862 13.8002 16.1468 14.3771 16.8382 14.3771C17.5297 14.3771 18.0903 13.8002 18.0903 13.0885C18.0903 12.3768 17.5297 11.7998 16.8382 11.7998ZM12.7015 1.84504C9.97566 1.84504 7.76594 4.04717 7.76594 6.76363C7.78462 6.86938 7.78462 6.97758 7.76594 7.08333H17.6987C17.6593 6.98125 17.6384 6.873 17.637 6.76363C17.637 4.04717 15.4273 1.84504 12.7015 1.84504Z" fill="white" style="fill:white;fill-opacity:1;"/>
</svg>
