<svg xmlns="http://www.w3.org/2000/svg" aria-hidden="true" overflow="hidden" style="position:absolute;width:0;height:0">
  <defs>
    <symbol id="icon-twitter" viewBox="0 0 40 32">
      <path d="M39.111 3.762a16.708 16.708 0 0 1-4.62 1.266A7.97 7.97 0 0 0 38.018.596a16.023 16.023 0 0 1-5.084 1.941A8.035 8.035 0 0 0 27.077 0c-4.439 0-8.013 3.603-8.013 8.02 0 .636.054 1.247.186 1.828-6.666-.325-12.564-3.52-16.527-8.387a8.07 8.07 0 0 0-1.098 4.053 8.03 8.03 0 0 0 3.562 6.664 7.906 7.906 0 0 1-3.623-.988v.088c0 3.896 2.779 7.133 6.424 7.878a8.023 8.023 0 0 1-2.102.264c-.513 0-1.032-.029-1.518-.137 1.039 3.175 3.987 5.51 7.492 5.586a16.112 16.112 0 0 1-9.942 3.42c-.658 0-1.288-.029-1.919-.11 3.552 2.29 7.761 3.598 12.3 3.598 14.755 0 22.821-12.222 22.821-22.816 0-.354-.012-.697-.029-1.036 1.591-1.129 2.928-2.54 4.019-4.163z"/>
    </symbol>
    <symbol id="icon-instagram" viewBox="0 0 32 32">
      <path d="M10 0h12c5.522 0 10 4.478 10 10v12c0 5.522-4.478 10-10 10H10C4.478 32 0 27.522 0 22V10C0 4.478 4.478 0 10 0zm12 29c3.86 0 7-3.14 7-7V10c0-3.86-3.14-7-7-7H10c-3.86 0-7 3.14-7 7v12c0 3.86 3.14 7 7 7h12z"/>
      <path d="M8 16a8 8 0 1 1 16 0 8 8 0 0 1-16 0zm3 0c0 2.756 2.244 5 5 5s5-2.244 5-5c0-2.758-2.244-5-5-5s-5 2.242-5 5zm14.666-8.6a1.066 1.066 0 1 1-2.131 0 1.066 1.066 0 0 1 2.131 0z"/>
    </symbol>
    <symbol id="icon-facebook" viewBox="0 0 16 32">
      <path d="M12.979 5.272h2.899V.223c-.5-.069-2.22-.224-4.223-.224-4.179 0-7.042 2.629-7.042 7.46v4.447H.001v5.644h4.612v14.201h5.654v-14.2h4.425l.703-5.644h-5.129V8.019c.001-1.631.441-2.748 2.713-2.748z"/>
    </symbol>
  </defs>
</svg>
